<svg width="20" height="20" viewBox="0 0 20 20" fill="none" xmlns="http://www.w3.org/2000/svg">
<circle cx="10" cy="10" r="10" fill="#E11614"/>
<path d="M8.45624 3.2H11.9437L11.3625 11.9785H9.03749L8.45624 3.2ZM10.2 16.8C9.68749 16.8 9.25624 16.6335 8.90624 16.3006C8.56874 15.9548 8.39999 15.5386 8.39999 15.052C8.39999 14.5653 8.56874 14.162 8.90624 13.8418C9.24374 13.5088 9.67499 13.3424 10.2 13.3424C10.725 13.3424 11.1562 13.5088 11.4937 13.8418C11.8312 14.162 12 14.5653 12 15.052C12 15.5386 11.825 15.9548 11.475 16.3006C11.1375 16.6335 10.7125 16.8 10.2 16.8Z" fill="white"/>
</svg>
