<svg width="241" height="196" viewBox="0 0 241 196" fill="none" xmlns="http://www.w3.org/2000/svg">
<path d="M151.5 20.5C148.3 25.7 146.833 31 146.5 33C149.3 37 153.5 31.8333 155.5 28.5C157.5 25.1667 162.5 15.1667 165.5 10.5C154.5 14 155 14 149 18.5C144.2 22.1 144.667 27.6667 145.5 30C146.3 26.4 149.833 22.1667 151.5 20.5Z" fill="#C73736"/>
<path d="M125.5 19C124.3 13.8 118.5 4.66667 115.5 1C128 4 134 9 137.5 12.5C140.3 15.3 140.333 22 140 25C138.8 21.8 134.167 16.3333 132 14C135.6 20 138.167 26.5 139 29C135.5 32 127 25.5 125.5 19Z" fill="#C73736"/>
<path d="M129.5 32C122.7 31.6 113.833 43.1667 109.5 49C114 47.5 116.677 47.125 120.5 46.5C144.5 44.5 145.54 39.4759 143 37.5C140.2 36.3 131.5 37 127.5 37.5C129.9 35.1 136.833 34.5 140 34.5C135 32 129.5 32 129.5 32Z" fill="#C73736"/>
<path d="M74 51C80.5 49.5 88 43.5 90.5 50C89.6667 52.8334 85.2 57 74 51Z" fill="#C73736"/>
<path d="M132 91.5C106.8 103.9 103.833 128.333 105.5 139C105.167 139 103.8 136.8 101 128C98.2 119.2 96.5 112 98 102C99.6366 91.0896 108.833 83.8333 115 79.5C111.4 78.3 96.4336 80.4681 90.5 81.5C79 83.5 68.6667 92 63 98.5C63.8 93.7 70.6667 86.5 74 83.5C83.6 74.7 92 70.5 109 70.5C127 69 136 65.3333 141 62C120.6 66.4 110.167 62.1667 107.5 59.5C102 55.5 100.667 47 101 42.5C103.245 62.9556 123.5 63.6091 143 56.5C162.5 49.3909 180.248 34.27 181 25C182.5 6.5 163.5 0 164.5 0C165.5 0 190 6.5 197.5 17.5C205 28.5 206 42 193 58C180 74 163.5 76 132 91.5Z" fill="#C73736"/>
<path d="M69.5 64.5C71 62.6667 74.7 59.3 77.5 60.5C77.6667 61.8333 76.3 64.5 69.5 64.5Z" fill="#D15253"/>
<path d="M213 70.5C213 42.9 210 31.5 204 24.5C205.6 26.9 206.333 33.1667 206.5 36C207 57 198.5 63 196.5 74.5C194.5 86 202 88 199.5 93.5C197 99 190 96.5 188.5 99C187 101.5 190 103.5 188.5 106C187.3 108 184.333 108.167 183 108C183 110.5 184.5 113.5 181.5 113.5C176 113.5 175.5 117 175 122C174.5 127 167.5 126 164 123.5C152.8 115.9 147.667 116 146.5 117C140.1 123.8 139.167 129.833 139.5 132C140 143 157.333 162.167 163 168.5C169 176 170.833 181.667 176 189.5C177 184 174.5 175 173 172C171.5 169 170.5 158.5 172.5 152C174.1 146.8 179.833 142.833 182.5 141.5C180 147.5 177.5 160.5 179 172C180.2 181.2 188.167 189.167 192 192L190 187C187 182.5 185.5 168.5 188.5 156C190.9 146 193.167 142.833 194 142.5C195.2 153.7 199.833 164 202.5 168.5C211.5 180 218.5 179.833 222 180.5C215.6 174.9 212.667 167.5 212 164.5C210.4 161.3 211.333 144.5 212 136.5C212 130.9 209.333 122.167 208 118.5C215 124 220.5 131 225.5 139.5C229.5 146.3 227.5 159 226 164.5C226.833 163.667 229.2 159.4 232 149C234.8 138.6 230.5 131 225.5 123C220.5 115 217.5 110.833 217.5 108C225.1 112.8 236.333 112.667 241 112C216.5 105 212.667 81.8333 213 70.5Z" fill="#C73736"/>
<path d="M1.76 167V151.754H11.968V154.636H5.192V157.826H11.22V160.708H5.192V167H1.76ZM23.5481 167C23.3867 166.472 23.2034 165.929 22.9981 165.372C22.8074 164.815 22.6167 164.257 22.4261 163.7H16.4861C16.2954 164.257 16.0974 164.815 15.8921 165.372C15.7014 165.929 15.5254 166.472 15.3641 167H11.8001C12.3721 165.357 12.9147 163.839 13.4281 162.446C13.9414 161.053 14.4401 159.74 14.9241 158.508C15.4227 157.276 15.9067 156.11 16.3761 155.01C16.8601 153.895 17.3587 152.81 17.8721 151.754H21.1501C21.6487 152.81 22.1401 153.895 22.6241 155.01C23.1081 156.11 23.5921 157.276 24.0761 158.508C24.5747 159.74 25.0807 161.053 25.5941 162.446C26.1074 163.839 26.6501 165.357 27.2221 167H23.5481ZM19.4341 155.208C19.3607 155.428 19.2507 155.729 19.1041 156.11C18.9574 156.491 18.7887 156.931 18.5981 157.43C18.4074 157.929 18.1947 158.479 17.9601 159.08C17.7401 159.681 17.5127 160.312 17.2781 160.972H21.6121C21.3774 160.312 21.1501 159.681 20.9301 159.08C20.7101 158.479 20.4974 157.929 20.2921 157.43C20.1014 156.931 19.9327 156.491 19.7861 156.11C19.6394 155.729 19.5221 155.428 19.4341 155.208ZM38.6989 151.754V154.68H34.1009V167H30.6689V154.68H26.0709V151.754H38.6989ZM40.9045 167V151.754H51.2005V154.636H44.3365V157.628H50.4305V160.444H44.3365V164.118H51.7065V167H40.9045ZM61.1983 167.308C58.7197 167.308 56.8277 166.619 55.5223 165.24C54.2317 163.861 53.5863 161.903 53.5863 159.366C53.5863 158.105 53.7843 156.983 54.1803 156C54.5763 155.003 55.119 154.167 55.8083 153.492C56.4977 152.803 57.319 152.282 58.2723 151.93C59.2257 151.578 60.2597 151.402 61.3743 151.402C62.0197 151.402 62.6063 151.453 63.1343 151.556C63.6623 151.644 64.1243 151.754 64.5203 151.886C64.9163 152.003 65.2463 152.128 65.5103 152.26C65.7743 152.392 65.965 152.495 66.0823 152.568L65.0923 155.34C64.623 155.091 64.073 154.878 63.4423 154.702C62.8263 154.526 62.1223 154.438 61.3303 154.438C60.8023 154.438 60.2817 154.526 59.7683 154.702C59.2697 154.878 58.8223 155.164 58.4263 155.56C58.045 155.941 57.737 156.44 57.5023 157.056C57.2677 157.672 57.1503 158.42 57.1503 159.3C57.1503 160.004 57.2237 160.664 57.3703 161.28C57.5317 161.881 57.781 162.402 58.1183 162.842C58.4703 163.282 58.925 163.634 59.4823 163.898C60.0397 164.147 60.7143 164.272 61.5063 164.272C62.005 164.272 62.4523 164.243 62.8483 164.184C63.2443 164.125 63.5963 164.059 63.9043 163.986C64.2123 163.898 64.4837 163.803 64.7183 163.7C64.953 163.597 65.1657 163.502 65.3563 163.414L66.3023 166.164C65.8183 166.457 65.1363 166.721 64.2563 166.956C63.3763 167.191 62.357 167.308 61.1983 167.308Z" fill="#C73736"/>
<path d="M6.842 192.198C6.006 192.198 5.17 192.169 4.334 192.11C3.51267 192.066 2.65467 191.949 1.76 191.758V176.974C2.464 176.842 3.234 176.747 4.07 176.688C4.906 176.615 5.68333 176.578 6.402 176.578C7.37 176.578 8.25733 176.651 9.064 176.798C9.88533 176.93 10.5893 177.165 11.176 177.502C11.7627 177.839 12.2173 178.287 12.54 178.844C12.8773 179.387 13.046 180.061 13.046 180.868C13.046 182.085 12.4593 183.046 11.286 183.75C12.254 184.117 12.914 184.615 13.266 185.246C13.618 185.877 13.794 186.588 13.794 187.38C13.794 188.979 13.2073 190.181 12.034 190.988C10.8753 191.795 9.14467 192.198 6.842 192.198ZM5.104 185.356V189.294C5.35333 189.323 5.62467 189.345 5.918 189.36C6.21133 189.375 6.534 189.382 6.886 189.382C7.91267 189.382 8.74133 189.235 9.372 188.942C10.0027 188.649 10.318 188.106 10.318 187.314C10.318 186.61 10.054 186.111 9.526 185.818C8.998 185.51 8.24267 185.356 7.26 185.356H5.104ZM5.104 182.738H6.776C7.832 182.738 8.58733 182.606 9.042 182.342C9.49667 182.063 9.724 181.623 9.724 181.022C9.724 180.406 9.48933 179.973 9.02 179.724C8.55067 179.475 7.86133 179.35 6.952 179.35C6.65867 179.35 6.34333 179.357 6.006 179.372C5.66867 179.372 5.368 179.387 5.104 179.416V182.738ZM16.5413 192V176.754H26.8373V179.636H19.9733V182.628H26.0673V185.444H19.9733V189.118H27.3433V192H16.5413ZM40.091 192C39.9297 191.472 39.7464 190.929 39.541 190.372C39.3504 189.815 39.1597 189.257 38.969 188.7H33.029C32.8384 189.257 32.6404 189.815 32.435 190.372C32.2444 190.929 32.0684 191.472 31.907 192H28.343C28.915 190.357 29.4577 188.839 29.971 187.446C30.4844 186.053 30.983 184.74 31.467 183.508C31.9657 182.276 32.4497 181.11 32.919 180.01C33.403 178.895 33.9017 177.81 34.415 176.754H37.693C38.1917 177.81 38.683 178.895 39.167 180.01C39.651 181.11 40.135 182.276 40.619 183.508C41.1177 184.74 41.6237 186.053 42.137 187.446C42.6504 188.839 43.193 190.357 43.765 192H40.091ZM35.977 180.208C35.9037 180.428 35.7937 180.729 35.647 181.11C35.5004 181.491 35.3317 181.931 35.141 182.43C34.9504 182.929 34.7377 183.479 34.503 184.08C34.283 184.681 34.0557 185.312 33.821 185.972H38.155C37.9204 185.312 37.693 184.681 37.473 184.08C37.253 183.479 37.0404 182.929 36.835 182.43C36.6444 181.931 36.4757 181.491 36.329 181.11C36.1824 180.729 36.065 180.428 35.977 180.208ZM51.2708 192.308C50.2002 192.308 49.2762 192.161 48.4988 191.868C47.7215 191.56 47.0762 191.142 46.5628 190.614C46.0642 190.071 45.6902 189.433 45.4408 188.7C45.2062 187.952 45.0888 187.131 45.0888 186.236V176.754H48.5208V185.95C48.5208 186.566 48.5868 187.094 48.7188 187.534C48.8655 187.959 49.0562 188.311 49.2908 188.59C49.5402 188.854 49.8335 189.045 50.1708 189.162C50.5228 189.279 50.9042 189.338 51.3148 189.338C52.1508 189.338 52.8255 189.081 53.3388 188.568C53.8668 188.055 54.1308 187.182 54.1308 185.95V176.754H57.5628V186.236C57.5628 187.131 57.4382 187.952 57.1888 188.7C56.9395 189.448 56.5582 190.093 56.0448 190.636C55.5315 191.164 54.8788 191.575 54.0868 191.868C53.2948 192.161 52.3562 192.308 51.2708 192.308ZM72.1715 176.754V179.68H67.5735V192H64.1415V179.68H59.5435V176.754H72.1715ZM80.7171 183.024C81.3331 181.983 81.9198 180.941 82.4771 179.9C83.0345 178.859 83.5478 177.81 84.0171 176.754H87.8011C86.9651 178.397 86.0998 179.988 85.2051 181.528C84.3105 183.068 83.3645 184.615 82.3671 186.17V192H78.9351V186.214C77.9378 184.659 76.9845 183.105 76.0751 181.55C75.1805 179.995 74.3151 178.397 73.4791 176.754H77.4611C77.9305 177.81 78.4365 178.859 78.9791 179.9C79.5218 180.941 80.1011 181.983 80.7171 183.024ZM104.155 176.754H107.587V192H104.155V185.532H98.3912V192H94.9592V176.754H98.3912V182.584H104.155V176.754ZM121.323 192C121.162 191.472 120.979 190.929 120.773 190.372C120.583 189.815 120.392 189.257 120.201 188.7H114.261C114.071 189.257 113.873 189.815 113.667 190.372C113.477 190.929 113.301 191.472 113.139 192H109.575C110.147 190.357 110.69 188.839 111.203 187.446C111.717 186.053 112.215 184.74 112.699 183.508C113.198 182.276 113.682 181.11 114.151 180.01C114.635 178.895 115.134 177.81 115.647 176.754H118.925C119.424 177.81 119.915 178.895 120.399 180.01C120.883 181.11 121.367 182.276 121.851 183.508C122.35 184.74 122.856 186.053 123.369 187.446C123.883 188.839 124.425 190.357 124.997 192H121.323ZM117.209 180.208C117.136 180.428 117.026 180.729 116.879 181.11C116.733 181.491 116.564 181.931 116.373 182.43C116.183 182.929 115.97 183.479 115.735 184.08C115.515 184.681 115.288 185.312 115.053 185.972H119.387C119.153 185.312 118.925 184.681 118.705 184.08C118.485 183.479 118.273 182.929 118.067 182.43C117.877 181.931 117.708 181.491 117.561 181.11C117.415 180.729 117.297 180.428 117.209 180.208ZM126.971 176.754H130.403V192H126.971V176.754ZM138.398 176.578C140.686 176.578 142.439 176.989 143.656 177.81C144.873 178.617 145.482 179.878 145.482 181.594C145.482 182.665 145.233 183.537 144.734 184.212C144.25 184.872 143.546 185.393 142.622 185.774C142.93 186.155 143.253 186.595 143.59 187.094C143.927 187.578 144.257 188.091 144.58 188.634C144.917 189.162 145.24 189.719 145.548 190.306C145.856 190.878 146.142 191.443 146.406 192H142.556C142.277 191.501 141.991 190.995 141.698 190.482C141.419 189.969 141.126 189.47 140.818 188.986C140.525 188.502 140.231 188.047 139.938 187.622C139.645 187.182 139.351 186.786 139.058 186.434H137.364V192H133.932V176.974C134.68 176.827 135.45 176.725 136.242 176.666C137.049 176.607 137.767 176.578 138.398 176.578ZM138.596 179.504C138.347 179.504 138.119 179.511 137.914 179.526C137.723 179.541 137.54 179.555 137.364 179.57V183.706H138.332C139.623 183.706 140.547 183.545 141.104 183.222C141.661 182.899 141.94 182.349 141.94 181.572C141.94 180.824 141.654 180.296 141.082 179.988C140.525 179.665 139.696 179.504 138.596 179.504Z" fill="black"/>
</svg>
