<svg width="240" height="193" viewBox="0 0 240 193" fill="none" xmlns="http://www.w3.org/2000/svg">
<path d="M149.74 20.5C146.54 25.7 145.073 31 144.74 33C147.54 37 151.74 31.8333 153.74 28.5C155.74 25.1667 160.74 15.1667 163.74 10.5C152.74 14 153.24 14 147.24 18.5C142.44 22.1 142.907 27.6667 143.74 30C144.54 26.4 148.073 22.1667 149.74 20.5Z" fill="white"/>
<path d="M123.74 19C122.54 13.8 116.74 4.66667 113.74 1C126.24 4 132.24 9 135.74 12.5C138.54 15.3 138.573 22 138.24 25C137.04 21.8 132.407 16.3333 130.24 14C133.84 20 136.407 26.5 137.24 29C133.74 32 125.24 25.5 123.74 19Z" fill="white"/>
<path d="M127.74 32C120.94 31.6 112.073 43.1667 107.74 49C112.24 47.5 114.917 47.125 118.74 46.5C142.74 44.5 143.78 39.4759 141.24 37.5C138.44 36.3 129.74 37 125.74 37.5C128.14 35.1 135.073 34.5 138.24 34.5C133.24 32 127.74 32 127.74 32Z" fill="white"/>
<path d="M72.24 51C78.74 49.5 86.24 43.5 88.74 50C87.9067 52.8334 83.44 57 72.24 51Z" fill="white"/>
<path d="M130.24 91.5C105.04 103.9 102.073 128.333 103.74 139C103.407 139 102.04 136.8 99.24 128C96.44 119.2 94.74 112 96.24 102C97.8766 91.0896 107.073 83.8333 113.24 79.5C109.64 78.3 94.6736 80.4681 88.74 81.5C77.24 83.5 66.9067 92 61.24 98.5C62.04 93.7 68.9067 86.5 72.24 83.5C81.84 74.7 90.24 70.5 107.24 70.5C125.24 69 134.24 65.3333 139.24 62C118.84 66.4 108.407 62.1667 105.74 59.5C100.24 55.5 98.9067 47 99.24 42.5C101.485 62.9556 121.74 63.6091 141.24 56.5C160.74 49.3909 178.488 34.27 179.24 25C180.74 6.5 161.74 0 162.74 0C163.74 0 188.24 6.5 195.74 17.5C203.24 28.5 204.24 42 191.24 58C178.24 74 161.74 76 130.24 91.5Z" fill="white"/>
<path d="M67.74 64.5C69.24 62.6667 72.94 59.3 75.74 60.5C75.9067 61.8333 74.54 64.5 67.74 64.5Z" fill="white"/>
<path d="M211.24 70.5C211.24 42.9 208.24 31.5 202.24 24.5C203.84 26.9 204.573 33.1667 204.74 36C205.24 57 196.74 63 194.74 74.5C192.74 86 200.24 88 197.74 93.5C195.24 99 188.24 96.5 186.74 99C185.24 101.5 188.24 103.5 186.74 106C185.54 108 182.573 108.167 181.24 108C181.24 110.5 182.74 113.5 179.74 113.5C174.24 113.5 173.74 117 173.24 122C172.74 127 165.74 126 162.24 123.5C151.04 115.9 145.907 116 144.74 117C138.34 123.8 137.407 129.833 137.74 132C138.24 143 155.573 162.167 161.24 168.5C167.24 176 169.073 181.667 174.24 189.5C175.24 184 172.74 175 171.24 172C169.74 169 168.74 158.5 170.74 152C172.34 146.8 178.073 142.833 180.74 141.5C178.24 147.5 175.74 160.5 177.24 172C178.44 181.2 186.407 189.167 190.24 192L188.24 187C185.24 182.5 183.74 168.5 186.74 156C189.14 146 191.407 142.833 192.24 142.5C193.44 153.7 198.073 164 200.74 168.5C209.74 180 216.74 179.833 220.24 180.5C213.84 174.9 210.907 167.5 210.24 164.5C208.64 161.3 209.573 144.5 210.24 136.5C210.24 130.9 207.573 122.167 206.24 118.5C213.24 124 218.74 131 223.74 139.5C227.74 146.3 225.74 159 224.24 164.5C225.073 163.667 227.44 159.4 230.24 149C233.04 138.6 228.74 131 223.74 123C218.74 115 215.74 110.833 215.74 108C223.34 112.8 234.573 112.667 239.24 112C214.74 105 210.907 81.8333 211.24 70.5Z" fill="white"/>
<path d="M0 167V151.754H10.208V154.636H3.432V157.826H9.46V160.708H3.432V167H0Z" fill="white"/>
<path d="M21.7881 167C21.6267 166.472 21.4434 165.929 21.2381 165.372C21.0474 164.815 20.8567 164.257 20.6661 163.7H14.7261C14.5354 164.257 14.3374 164.815 14.1321 165.372C13.9414 165.929 13.7654 166.472 13.6041 167H10.0401C10.6121 165.357 11.1547 163.839 11.6681 162.446C12.1814 161.053 12.6801 159.74 13.1641 158.508C13.6627 157.276 14.1467 156.11 14.6161 155.01C15.1001 153.895 15.5987 152.81 16.1121 151.754H19.3901C19.8887 152.81 20.3801 153.895 20.8641 155.01C21.3481 156.11 21.8321 157.276 22.3161 158.508C22.8147 159.74 23.3207 161.053 23.8341 162.446C24.3474 163.839 24.8901 165.357 25.4621 167H21.7881ZM17.6741 155.208C17.6007 155.428 17.4907 155.729 17.3441 156.11C17.1974 156.491 17.0287 156.931 16.8381 157.43C16.6474 157.929 16.4347 158.479 16.2001 159.08C15.9801 159.681 15.7527 160.312 15.5181 160.972H19.8521C19.6174 160.312 19.3901 159.681 19.1701 159.08C18.9501 158.479 18.7374 157.929 18.5321 157.43C18.3414 156.931 18.1727 156.491 18.0261 156.11C17.8794 155.729 17.7621 155.428 17.6741 155.208Z" fill="white"/>
<path d="M36.9389 151.754V154.68H32.3409V167H28.9089V154.68H24.3109V151.754H36.9389Z" fill="white"/>
<path d="M39.1445 167V151.754H49.4405V154.636H42.5765V157.628H48.6705V160.444H42.5765V164.118H49.9465V167H39.1445Z" fill="white"/>
<path d="M59.4383 167.308C56.9597 167.308 55.0677 166.619 53.7623 165.24C52.4717 163.861 51.8263 161.903 51.8263 159.366C51.8263 158.105 52.0243 156.983 52.4203 156C52.8163 155.003 53.359 154.167 54.0483 153.492C54.7377 152.803 55.559 152.282 56.5123 151.93C57.4657 151.578 58.4997 151.402 59.6143 151.402C60.2597 151.402 60.8463 151.453 61.3743 151.556C61.9023 151.644 62.3643 151.754 62.7603 151.886C63.1563 152.003 63.4863 152.128 63.7503 152.26C64.0143 152.392 64.205 152.495 64.3223 152.568L63.3323 155.34C62.863 155.091 62.313 154.878 61.6823 154.702C61.0663 154.526 60.3623 154.438 59.5703 154.438C59.0423 154.438 58.5217 154.526 58.0083 154.702C57.5097 154.878 57.0623 155.164 56.6663 155.56C56.285 155.941 55.977 156.44 55.7423 157.056C55.5077 157.672 55.3903 158.42 55.3903 159.3C55.3903 160.004 55.4637 160.664 55.6103 161.28C55.7717 161.881 56.021 162.402 56.3583 162.842C56.7103 163.282 57.165 163.634 57.7223 163.898C58.2797 164.147 58.9543 164.272 59.7463 164.272C60.245 164.272 60.6923 164.243 61.0883 164.184C61.4843 164.125 61.8363 164.059 62.1443 163.986C62.4523 163.898 62.7237 163.803 62.9583 163.7C63.193 163.597 63.4057 163.502 63.5963 163.414L64.5423 166.164C64.0583 166.457 63.3763 166.721 62.4963 166.956C61.6163 167.191 60.597 167.308 59.4383 167.308Z" fill="white"/>
<path d="M5.082 192.198C4.246 192.198 3.41 192.169 2.574 192.11C1.75267 192.066 0.894667 191.949 0 191.758V176.974C0.704 176.842 1.474 176.747 2.31 176.688C3.146 176.615 3.92333 176.578 4.642 176.578C5.61 176.578 6.49733 176.651 7.304 176.798C8.12533 176.93 8.82933 177.165 9.416 177.502C10.0027 177.839 10.4573 178.287 10.78 178.844C11.1173 179.387 11.286 180.061 11.286 180.868C11.286 182.085 10.6993 183.046 9.526 183.75C10.494 184.117 11.154 184.615 11.506 185.246C11.858 185.877 12.034 186.588 12.034 187.38C12.034 188.979 11.4473 190.181 10.274 190.988C9.11533 191.795 7.38467 192.198 5.082 192.198ZM3.344 185.356V189.294C3.59333 189.323 3.86467 189.345 4.158 189.36C4.45133 189.375 4.774 189.382 5.126 189.382C6.15267 189.382 6.98133 189.235 7.612 188.942C8.24267 188.649 8.558 188.106 8.558 187.314C8.558 186.61 8.294 186.111 7.766 185.818C7.238 185.51 6.48267 185.356 5.5 185.356H3.344ZM3.344 182.738H5.016C6.072 182.738 6.82733 182.606 7.282 182.342C7.73667 182.063 7.964 181.623 7.964 181.022C7.964 180.406 7.72933 179.973 7.26 179.724C6.79067 179.475 6.10133 179.35 5.192 179.35C4.89867 179.35 4.58333 179.357 4.246 179.372C3.90867 179.372 3.608 179.387 3.344 179.416V182.738Z" fill="white"/>
<path d="M14.7812 192V176.754H25.0773V179.636H18.2133V182.628H24.3073V185.444H18.2133V189.118H25.5833V192H14.7812Z" fill="white"/>
<path d="M38.331 192C38.1697 191.472 37.9864 190.929 37.781 190.372C37.5904 189.815 37.3997 189.257 37.209 188.7H31.269C31.0784 189.257 30.8804 189.815 30.675 190.372C30.4844 190.929 30.3084 191.472 30.147 192H26.583C27.155 190.357 27.6977 188.839 28.211 187.446C28.7244 186.053 29.223 184.74 29.707 183.508C30.2057 182.276 30.6897 181.11 31.159 180.01C31.643 178.895 32.1417 177.81 32.655 176.754H35.933C36.4317 177.81 36.923 178.895 37.407 180.01C37.891 181.11 38.375 182.276 38.859 183.508C39.3577 184.74 39.8637 186.053 40.377 187.446C40.8904 188.839 41.433 190.357 42.005 192H38.331ZM34.217 180.208C34.1437 180.428 34.0337 180.729 33.887 181.11C33.7404 181.491 33.5717 181.931 33.381 182.43C33.1904 182.929 32.9777 183.479 32.743 184.08C32.523 184.681 32.2957 185.312 32.061 185.972H36.395C36.1604 185.312 35.933 184.681 35.713 184.08C35.493 183.479 35.2804 182.929 35.075 182.43C34.8844 181.931 34.7157 181.491 34.569 181.11C34.4224 180.729 34.305 180.428 34.217 180.208Z" fill="white"/>
<path d="M49.5108 192.308C48.4402 192.308 47.5162 192.161 46.7388 191.868C45.9615 191.56 45.3162 191.142 44.8028 190.614C44.3042 190.071 43.9302 189.433 43.6808 188.7C43.4462 187.952 43.3288 187.131 43.3288 186.236V176.754H46.7608V185.95C46.7608 186.566 46.8268 187.094 46.9588 187.534C47.1055 187.959 47.2962 188.311 47.5308 188.59C47.7802 188.854 48.0735 189.045 48.4108 189.162C48.7628 189.279 49.1442 189.338 49.5548 189.338C50.3908 189.338 51.0655 189.081 51.5788 188.568C52.1068 188.055 52.3708 187.182 52.3708 185.95V176.754H55.8028V186.236C55.8028 187.131 55.6782 187.952 55.4288 188.7C55.1795 189.448 54.7982 190.093 54.2848 190.636C53.7715 191.164 53.1188 191.575 52.3268 191.868C51.5348 192.161 50.5962 192.308 49.5108 192.308Z" fill="white"/>
<path d="M70.4115 176.754V179.68H65.8135V192H62.3815V179.68H57.7835V176.754H70.4115Z" fill="white"/>
<path d="M78.9571 183.024C79.5731 181.983 80.1598 180.941 80.7171 179.9C81.2745 178.859 81.7878 177.81 82.2571 176.754H86.0411C85.2051 178.397 84.3398 179.988 83.4451 181.528C82.5505 183.068 81.6045 184.615 80.6071 186.17V192H77.1751V186.214C76.1778 184.659 75.2245 183.105 74.3151 181.55C73.4205 179.995 72.5551 178.397 71.7191 176.754H75.7011C76.1705 177.81 76.6765 178.859 77.2191 179.9C77.7618 180.941 78.3411 181.983 78.9571 183.024Z" fill="white"/>
<path d="M102.395 176.754H105.827V192H102.395V185.532H96.6312V192H93.1992V176.754H96.6312V182.584H102.395V176.754Z" fill="white"/>
<path d="M119.563 192C119.402 191.472 119.219 190.929 119.013 190.372C118.823 189.815 118.632 189.257 118.441 188.7H112.501C112.311 189.257 112.113 189.815 111.907 190.372C111.717 190.929 111.541 191.472 111.379 192H107.815C108.387 190.357 108.93 188.839 109.443 187.446C109.957 186.053 110.455 184.74 110.939 183.508C111.438 182.276 111.922 181.11 112.391 180.01C112.875 178.895 113.374 177.81 113.887 176.754H117.165C117.664 177.81 118.155 178.895 118.639 180.01C119.123 181.11 119.607 182.276 120.091 183.508C120.59 184.74 121.096 186.053 121.609 187.446C122.123 188.839 122.665 190.357 123.237 192H119.563ZM115.449 180.208C115.376 180.428 115.266 180.729 115.119 181.11C114.973 181.491 114.804 181.931 114.613 182.43C114.423 182.929 114.21 183.479 113.975 184.08C113.755 184.681 113.528 185.312 113.293 185.972H117.627C117.393 185.312 117.165 184.681 116.945 184.08C116.725 183.479 116.513 182.929 116.307 182.43C116.117 181.931 115.948 181.491 115.801 181.11C115.655 180.729 115.537 180.428 115.449 180.208Z" fill="white"/>
<path d="M125.211 176.754H128.643V192H125.211V176.754Z" fill="white"/>
<path d="M136.638 176.578C138.926 176.578 140.679 176.989 141.896 177.81C143.113 178.617 143.722 179.878 143.722 181.594C143.722 182.665 143.473 183.537 142.974 184.212C142.49 184.872 141.786 185.393 140.862 185.774C141.17 186.155 141.493 186.595 141.83 187.094C142.167 187.578 142.497 188.091 142.82 188.634C143.157 189.162 143.48 189.719 143.788 190.306C144.096 190.878 144.382 191.443 144.646 192H140.796C140.517 191.501 140.231 190.995 139.938 190.482C139.659 189.969 139.366 189.47 139.058 188.986C138.765 188.502 138.471 188.047 138.178 187.622C137.885 187.182 137.591 186.786 137.298 186.434H135.604V192H132.172V176.974C132.92 176.827 133.69 176.725 134.482 176.666C135.289 176.607 136.007 176.578 136.638 176.578ZM136.836 179.504C136.587 179.504 136.359 179.511 136.154 179.526C135.963 179.541 135.78 179.555 135.604 179.57V183.706H136.572C137.863 183.706 138.787 183.545 139.344 183.222C139.901 182.899 140.18 182.349 140.18 181.572C140.18 180.824 139.894 180.296 139.322 179.988C138.765 179.665 137.936 179.504 136.836 179.504Z" fill="white"/>
</svg>
